<svg id="Laag_1" data-name="Laag 1" xmlns="http://www.w3.org/2000/svg" viewBox="0 0 294.38 294.38"><defs><style>.cls-1,.cls-2{fill:none;stroke:#207dbb;stroke-linecap:round;stroke-width:9px;}.cls-1{stroke-miterlimit:10;}.cls-2{stroke-linejoin:round;}</style></defs><title>planet-icon</title><circle class="cls-1" cx="106.87" cy="82.05" r="3.1"/><circle class="cls-1" cx="106.87" cy="82.05" r="40.33"/><circle class="cls-2" cx="286.78" cy="72.74" r="3.1"/><circle class="cls-2" cx="258.86" cy="280.58" r="3.1"/><line class="cls-1" x1="4.5" y1="147.19" x2="289.88" y2="147.19"/><line class="cls-1" x1="187.52" y1="26.21" x2="227.84" y2="26.21"/><line class="cls-1" x1="218.54" y1="72.74" x2="265.07" y2="72.74"/><line class="cls-1" x1="209.23" y1="91.36" x2="258.86" y2="91.36"/><line class="cls-1" x1="209.23" y1="47.93" x2="240.25" y2="47.93"/><line class="cls-1" x1="218.54" y1="289.88" x2="147.19" y2="289.88"/><line class="cls-1" x1="277.48" y1="230.95" x2="230.95" y2="230.95"/><line class="cls-1" x1="268.17" y1="212.33" x2="203.03" y2="212.33"/><line class="cls-1" x1="252.66" y1="252.66" x2="221.64" y2="252.66"/><line class="cls-1" x1="255.76" y1="128.58" x2="288.72" y2="128.58"/><line class="cls-1" x1="265.07" y1="181.31" x2="285.58" y2="181.31"/><line class="cls-1" x1="274.37" y1="165.8" x2="288.6" y2="165.8"/><path class="cls-1" d="M162.42,261q-2.83.31-5.7.48" transform="translate(-2.81 -2.81)"/><path class="cls-1" d="M134.49,261.67c-30.73-4.63-58.62-23-75.79-47.34" transform="translate(-2.81 -2.81)"/><line class="cls-1" x1="255.76" y1="165.8" x2="249.56" y2="165.8"/><line class="cls-1" x1="240.25" y1="181.31" x2="234.05" y2="181.31"/><line class="cls-1" x1="184.42" y1="212.33" x2="178.21" y2="212.33"/><line class="cls-1" x1="196.82" y1="72.74" x2="190.62" y2="72.74"/><path class="cls-2" d="M215.68,276.79s26.35-11.37,37.72-70c0,0,.32-7.89,30-7.12h0a140.27,140.27,0,0,0,4.47-86.4l-.27-1c-28.55,2.36-40.44-5.66-40.44-5.66-12.41-66.17-43.92-89-43.92-89l-.15-.06a142.67,142.67,0,1,0,12.55,259.26Z" transform="translate(-2.81 -2.81)"/></svg>