<svg id="Laag_1" data-name="Laag 1" xmlns="http://www.w3.org/2000/svg" viewBox="0 0 294.38 294.14"><defs><style>.cls-1,.cls-2{fill:none;stroke:#207dbb;stroke-linecap:round;stroke-width:9px;}.cls-1{stroke-linejoin:round;}.cls-2{stroke-miterlimit:10;}</style></defs><title>starship-icon</title><line class="cls-1" x1="101.26" y1="140.37" x2="47.29" y2="86.4"/><line class="cls-1" x1="125.17" y1="120.45" x2="69.72" y2="65"/><circle class="cls-1" cx="68.39" cy="225.85" r="3.1"/><circle class="cls-1" cx="90.31" cy="203.94" r="3.1"/><circle class="cls-1" cx="46.78" cy="189.69" r="3.1"/><circle class="cls-1" cx="74.67" cy="176.54" r="3.1"/><circle class="cls-1" cx="104.56" cy="247.47" r="3.1"/><circle class="cls-1" cx="117.71" cy="219.58" r="3.1"/><polyline class="cls-1" points="152.88 123.83 259.06 17.65 245.91 4.5 99.78 49.42"/><line class="cls-1" x1="228.38" y1="48.33" x2="245.92" y2="65.86"/><path class="cls-1" d="M228.53,89c17.57,21.8,25.69,49.14,24.95,75.67" transform="translate(-2.81 -2.93)"/><path class="cls-1" d="M235.57,204.68" transform="translate(-2.81 -2.93)"/><polyline class="cls-1" points="169.3 142.33 276.6 35.18 289.75 48.33 255.47 157.13"/><path class="cls-1" d="M184.13,179.53l79.93,18.57L288.17,174a15.53,15.53,0,0,0,0-21.91h0a15.53,15.53,0,0,0-21.91,0l-12.87,12.67-81.28-19.48" transform="translate(-2.81 -2.93)"/><line class="cls-1" x1="229.51" y1="224.79" x2="170.7" y2="166.3"/><line class="cls-1" x1="208.19" y1="247.3" x2="151.23" y2="189.77"/><circle class="cls-2" cx="134.85" cy="156.37" r="37.19"/><line class="cls-1" x1="23.13" y1="140.87" x2="101.26" y2="140.37"/><line class="cls-1" x1="153.32" y1="271.33" x2="151.12" y2="189.77"/><path class="cls-1" d="M249.37,194.69a114.81,114.81,0,0,1-92.61,79.57l-18.47,18.31h0c-31,0-66.68-12.86-92.4-38.58A131.28,131.28,0,0,1,7.31,161.07h0L25.94,143.8A116.24,116.24,0,0,1,58.69,79.75a114.69,114.69,0,0,1,152.59-8.57" transform="translate(-2.81 -2.93)"/></svg>